<mxfile host="app.diagrams.net" agent="Mozilla/5.0 (Windows NT 10.0; Win64; x64) AppleWebKit/537.36 (KHTML, like Gecko) Chrome/129.0.0.0 Safari/537.36" version="24.7.16">
  <diagram name="Page-1" id="GU1-e7SncTrztPXRymhK">
    <mxGraphModel dx="1177" dy="596" grid="1" gridSize="10" guides="1" tooltips="1" connect="1" arrows="1" fold="1" page="1" pageScale="1" pageWidth="850" pageHeight="1100" math="0" shadow="0">
      <root>
        <mxCell id="0" />
        <mxCell id="1" parent="0" />
        <mxCell id="Xrw4vi37HNpNWmRxOqXM-1" value="«component»&lt;br&gt;&lt;b&gt;Mobile App&lt;/b&gt;" style="html=1;dropTarget=0;whiteSpace=wrap;" vertex="1" parent="1">
          <mxGeometry x="20" y="190" width="260" height="180" as="geometry" />
        </mxCell>
        <mxCell id="Xrw4vi37HNpNWmRxOqXM-2" value="" style="shape=module;jettyWidth=8;jettyHeight=4;" vertex="1" parent="Xrw4vi37HNpNWmRxOqXM-1">
          <mxGeometry x="1" width="20" height="30" relative="1" as="geometry">
            <mxPoint x="-30" y="70" as="offset" />
          </mxGeometry>
        </mxCell>
        <mxCell id="Xrw4vi37HNpNWmRxOqXM-11" style="edgeStyle=orthogonalEdgeStyle;rounded=0;orthogonalLoop=1;jettySize=auto;html=1;endArrow=none;endFill=0;" edge="1" parent="1" source="Xrw4vi37HNpNWmRxOqXM-3" target="Xrw4vi37HNpNWmRxOqXM-10">
          <mxGeometry relative="1" as="geometry" />
        </mxCell>
        <mxCell id="Xrw4vi37HNpNWmRxOqXM-3" value="«component»&lt;br&gt;&lt;b&gt;HTTP Module&lt;/b&gt;" style="html=1;dropTarget=0;whiteSpace=wrap;" vertex="1" parent="1">
          <mxGeometry x="130" y="310" width="130" height="50" as="geometry" />
        </mxCell>
        <mxCell id="Xrw4vi37HNpNWmRxOqXM-4" value="" style="shape=module;jettyWidth=8;jettyHeight=4;" vertex="1" parent="Xrw4vi37HNpNWmRxOqXM-3">
          <mxGeometry x="1" width="20" height="20" relative="1" as="geometry">
            <mxPoint x="-27" y="7" as="offset" />
          </mxGeometry>
        </mxCell>
        <mxCell id="Xrw4vi37HNpNWmRxOqXM-10" value="" style="shape=providedRequiredInterface;html=1;verticalLabelPosition=bottom;sketch=0;" vertex="1" parent="1">
          <mxGeometry x="320" y="280" width="50" height="50" as="geometry" />
        </mxCell>
        <mxCell id="Xrw4vi37HNpNWmRxOqXM-12" value="«Component»&lt;br&gt;&lt;b&gt;Back End Application&lt;/b&gt;" style="html=1;dropTarget=0;whiteSpace=wrap;" vertex="1" parent="1">
          <mxGeometry x="380" y="190" width="410" height="390" as="geometry" />
        </mxCell>
        <mxCell id="Xrw4vi37HNpNWmRxOqXM-13" value="" style="shape=module;jettyWidth=8;jettyHeight=4;" vertex="1" parent="Xrw4vi37HNpNWmRxOqXM-12">
          <mxGeometry x="1" width="20" height="20" relative="1" as="geometry">
            <mxPoint x="-27" y="7" as="offset" />
          </mxGeometry>
        </mxCell>
        <mxCell id="Xrw4vi37HNpNWmRxOqXM-14" value="«component»&lt;br&gt;&lt;b&gt;Web App&lt;/b&gt;" style="html=1;dropTarget=0;whiteSpace=wrap;" vertex="1" parent="1">
          <mxGeometry x="20" y="380" width="260" height="180" as="geometry" />
        </mxCell>
        <mxCell id="Xrw4vi37HNpNWmRxOqXM-15" value="" style="shape=module;jettyWidth=8;jettyHeight=4;" vertex="1" parent="Xrw4vi37HNpNWmRxOqXM-14">
          <mxGeometry x="1" width="20" height="30" relative="1" as="geometry">
            <mxPoint x="-30" y="70" as="offset" />
          </mxGeometry>
        </mxCell>
        <mxCell id="Xrw4vi37HNpNWmRxOqXM-16" style="edgeStyle=orthogonalEdgeStyle;rounded=0;orthogonalLoop=1;jettySize=auto;html=1;endArrow=none;endFill=0;" edge="1" parent="1" source="Xrw4vi37HNpNWmRxOqXM-17" target="Xrw4vi37HNpNWmRxOqXM-19">
          <mxGeometry relative="1" as="geometry" />
        </mxCell>
        <mxCell id="Xrw4vi37HNpNWmRxOqXM-17" value="«component»&lt;br&gt;&lt;b&gt;HTTP Module&lt;/b&gt;" style="html=1;dropTarget=0;whiteSpace=wrap;" vertex="1" parent="1">
          <mxGeometry x="130" y="500" width="130" height="50" as="geometry" />
        </mxCell>
        <mxCell id="Xrw4vi37HNpNWmRxOqXM-18" value="" style="shape=module;jettyWidth=8;jettyHeight=4;" vertex="1" parent="Xrw4vi37HNpNWmRxOqXM-17">
          <mxGeometry x="1" width="20" height="20" relative="1" as="geometry">
            <mxPoint x="-27" y="7" as="offset" />
          </mxGeometry>
        </mxCell>
        <mxCell id="Xrw4vi37HNpNWmRxOqXM-19" value="" style="shape=providedRequiredInterface;html=1;verticalLabelPosition=bottom;sketch=0;" vertex="1" parent="1">
          <mxGeometry x="310" y="500" width="50" height="50" as="geometry" />
        </mxCell>
        <mxCell id="Xrw4vi37HNpNWmRxOqXM-20" style="edgeStyle=orthogonalEdgeStyle;rounded=0;orthogonalLoop=1;jettySize=auto;html=1;entryX=1;entryY=0.5;entryDx=0;entryDy=0;entryPerimeter=0;endArrow=none;endFill=0;exitX=0;exitY=0.25;exitDx=0;exitDy=0;" edge="1" parent="1" source="Xrw4vi37HNpNWmRxOqXM-24" target="Xrw4vi37HNpNWmRxOqXM-10">
          <mxGeometry relative="1" as="geometry" />
        </mxCell>
        <mxCell id="Xrw4vi37HNpNWmRxOqXM-24" value="«Component»&lt;br&gt;&lt;b&gt;Request Parser&lt;/b&gt;" style="html=1;dropTarget=0;whiteSpace=wrap;" vertex="1" parent="1">
          <mxGeometry x="425" y="440" width="120" height="70" as="geometry" />
        </mxCell>
        <mxCell id="Xrw4vi37HNpNWmRxOqXM-25" value="" style="shape=module;jettyWidth=8;jettyHeight=4;" vertex="1" parent="Xrw4vi37HNpNWmRxOqXM-24">
          <mxGeometry x="1" width="20" height="20" relative="1" as="geometry">
            <mxPoint x="-27" y="7" as="offset" />
          </mxGeometry>
        </mxCell>
        <mxCell id="Xrw4vi37HNpNWmRxOqXM-27" value="«Component»&lt;br&gt;&lt;b&gt;Application Server&lt;/b&gt;" style="html=1;dropTarget=0;whiteSpace=wrap;" vertex="1" parent="1">
          <mxGeometry x="650" y="440" width="120" height="70" as="geometry" />
        </mxCell>
        <mxCell id="Xrw4vi37HNpNWmRxOqXM-28" value="" style="shape=module;jettyWidth=8;jettyHeight=4;" vertex="1" parent="Xrw4vi37HNpNWmRxOqXM-27">
          <mxGeometry x="1" width="20" height="20" relative="1" as="geometry">
            <mxPoint x="-27" y="7" as="offset" />
          </mxGeometry>
        </mxCell>
        <mxCell id="Xrw4vi37HNpNWmRxOqXM-29" style="edgeStyle=orthogonalEdgeStyle;rounded=0;orthogonalLoop=1;jettySize=auto;html=1;entryX=0.012;entryY=0.642;entryDx=0;entryDy=0;entryPerimeter=0;endArrow=none;endFill=0;" edge="1" parent="1" source="Xrw4vi37HNpNWmRxOqXM-19" target="Xrw4vi37HNpNWmRxOqXM-24">
          <mxGeometry relative="1" as="geometry" />
        </mxCell>
        <mxCell id="Xrw4vi37HNpNWmRxOqXM-30" value="" style="rounded=0;orthogonalLoop=1;jettySize=auto;html=1;endArrow=halfCircle;endFill=0;endSize=6;strokeWidth=1;sketch=0;exitX=0;exitY=0.5;exitDx=0;exitDy=0;" edge="1" target="Xrw4vi37HNpNWmRxOqXM-32" parent="1" source="Xrw4vi37HNpNWmRxOqXM-27">
          <mxGeometry relative="1" as="geometry">
            <mxPoint x="585" y="475" as="sourcePoint" />
          </mxGeometry>
        </mxCell>
        <mxCell id="Xrw4vi37HNpNWmRxOqXM-31" value="" style="rounded=0;orthogonalLoop=1;jettySize=auto;html=1;endArrow=oval;endFill=0;sketch=0;sourcePerimeterSpacing=0;targetPerimeterSpacing=0;endSize=10;" edge="1" target="Xrw4vi37HNpNWmRxOqXM-32" parent="1">
          <mxGeometry relative="1" as="geometry">
            <mxPoint x="545" y="475" as="sourcePoint" />
          </mxGeometry>
        </mxCell>
        <mxCell id="Xrw4vi37HNpNWmRxOqXM-32" value="" style="ellipse;whiteSpace=wrap;html=1;align=center;aspect=fixed;fillColor=none;strokeColor=none;resizable=0;perimeter=centerPerimeter;rotatable=0;allowArrows=0;points=[];outlineConnect=1;" vertex="1" parent="1">
          <mxGeometry x="590" y="470" width="10" height="10" as="geometry" />
        </mxCell>
        <mxCell id="Xrw4vi37HNpNWmRxOqXM-33" value="«Component»&lt;br&gt;&lt;b&gt;Database&lt;/b&gt;" style="html=1;dropTarget=0;whiteSpace=wrap;" vertex="1" parent="1">
          <mxGeometry x="610" y="620" width="180" height="90" as="geometry" />
        </mxCell>
        <mxCell id="Xrw4vi37HNpNWmRxOqXM-34" value="" style="shape=module;jettyWidth=8;jettyHeight=4;" vertex="1" parent="Xrw4vi37HNpNWmRxOqXM-33">
          <mxGeometry x="1" width="20" height="20" relative="1" as="geometry">
            <mxPoint x="-27" y="7" as="offset" />
          </mxGeometry>
        </mxCell>
        <mxCell id="Xrw4vi37HNpNWmRxOqXM-35" value="" style="rounded=0;orthogonalLoop=1;jettySize=auto;html=1;endArrow=halfCircle;endFill=0;endSize=6;strokeWidth=1;sketch=0;exitX=0.5;exitY=0;exitDx=0;exitDy=0;" edge="1" target="Xrw4vi37HNpNWmRxOqXM-37" parent="1" source="Xrw4vi37HNpNWmRxOqXM-33">
          <mxGeometry relative="1" as="geometry">
            <mxPoint x="740" y="550" as="sourcePoint" />
          </mxGeometry>
        </mxCell>
        <mxCell id="Xrw4vi37HNpNWmRxOqXM-36" value="" style="rounded=0;orthogonalLoop=1;jettySize=auto;html=1;endArrow=oval;endFill=0;sketch=0;sourcePerimeterSpacing=0;targetPerimeterSpacing=0;endSize=10;exitX=0.5;exitY=1;exitDx=0;exitDy=0;" edge="1" target="Xrw4vi37HNpNWmRxOqXM-37" parent="1" source="Xrw4vi37HNpNWmRxOqXM-27">
          <mxGeometry relative="1" as="geometry">
            <mxPoint x="700" y="550" as="sourcePoint" />
          </mxGeometry>
        </mxCell>
        <mxCell id="Xrw4vi37HNpNWmRxOqXM-37" value="" style="ellipse;whiteSpace=wrap;html=1;align=center;aspect=fixed;fillColor=none;strokeColor=none;resizable=0;perimeter=centerPerimeter;rotatable=0;allowArrows=0;points=[];outlineConnect=1;" vertex="1" parent="1">
          <mxGeometry x="715" y="545" width="10" height="10" as="geometry" />
        </mxCell>
      </root>
    </mxGraphModel>
  </diagram>
</mxfile>
